# MagicaVoxel @ Ephtracy

# group
g sentakubasami

# material
mtllib sentakubasami.mtl
usemtl palette

# normals
vn -1 0 0
vn 1 0 0
vn 0 0 1
vn 0 0 -1
vn 0 -1 0
vn 0 1 0

# texcoords
vt 0.728516 0.5
vt 0.958984 0.5
vt 0.978516 0.5
vt 0.990234 0.5

# verts
v -6.5 0 1
v -6.5 0 -2
v -6.5 1 -0
v -6.5 1 -1
v -6.5 2 -0
v -6.5 2 -1
v -6.5 3 1
v -6.5 3 -2
v -5.5 1 -0
v -5.5 1 -1
v -5.5 2 -0
v -5.5 2 -1
v -5.5 3 1
v -5.5 3 -2
v -5.5 5 1
v -5.5 5 -2
v -4.5 5 1
v -4.5 5 -0
v -4.5 5 -1
v -4.5 5 -2
v -4.5 7 1
v -4.5 7 -0
v -4.5 7 -1
v -4.5 7 -2
v -4.5 8 2
v -4.5 8 1
v -4.5 9 -0
v -4.5 9 -1
v -4.5 11 2
v -4.5 11 1
v -3.5 7 1
v -3.5 7 -0
v -3.5 7 -1
v -3.5 7 -2
v -3.5 8 1
v -3.5 9 -0
v -3.5 9 -1
v -3.5 11 1
v -3.5 11 -2
v -2.5 2 -0
v -2.5 2 -1
v -2.5 3 -0
v -2.5 3 -1
v -2.5 11 1
v -2.5 11 -2
v -2.5 14 1
v -2.5 14 -2
v 0.5 10 1
v 0.5 10 -2
v 0.5 14 1
v 0.5 14 -2
v 1.5 3 -0
v 1.5 3 -1
v 1.5 4 1
v 1.5 4 -0
v 1.5 4 -1
v 1.5 4 -2
v 1.5 5 1
v 1.5 5 -0
v 1.5 5 -1
v 1.5 5 -2
v 1.5 7 1
v 1.5 7 -2
v 1.5 8 2
v 1.5 8 1
v 1.5 8 -2
v 1.5 9 1
v 1.5 9 -2
v 1.5 10 1
v 1.5 10 -2
v 1.5 11 2
v 1.5 11 1
v 2.5 3 1
v 2.5 3 -0
v 2.5 3 -1
v 2.5 3 -2
v 2.5 4 1
v 2.5 4 -0
v 2.5 4 -1
v 2.5 4 -2
v 2.5 8 1
v 2.5 8 -2
v 2.5 9 1
v 2.5 9 -2
v 3.5 2 1
v 3.5 2 -2
v 3.5 3 1
v 3.5 3 -0
v 3.5 3 -1
v 3.5 3 -2
v 4.5 1 1
v 4.5 1 -2
v 4.5 2 1
v 4.5 2 -2
v 5.5 0 1
v 5.5 0 -2
v 5.5 1 1
v 5.5 1 -2
v -5.5 0 1
v -5.5 0 -2
v -5.5 1 1
v -5.5 1 -2
v -4.5 1 1
v -4.5 1 -2
v -4.5 2 1
v -4.5 2 -2
v -3.5 2 1
v -3.5 2 -2
v -3.5 3 1
v -3.5 3 -0
v -3.5 3 -1
v -3.5 3 -2
v -2.5 3 1
v -2.5 3 -0
v -2.5 3 -1
v -2.5 3 -2
v -2.5 4 1
v -2.5 4 -0
v -2.5 4 -1
v -2.5 4 -2
v -2.5 8 1
v -2.5 8 -2
v -2.5 9 1
v -2.5 9 -2
v -1.5 3 -0
v -1.5 3 -1
v -1.5 4 1
v -1.5 4 -0
v -1.5 4 -1
v -1.5 4 -2
v -1.5 5 1
v -1.5 5 -0
v -1.5 5 -1
v -1.5 5 -2
v -1.5 7 1
v -1.5 7 -2
v -1.5 8 2
v -1.5 8 1
v -1.5 8 -2
v -1.5 9 1
v -1.5 9 -2
v -1.5 10 1
v -1.5 10 -2
v -1.5 11 2
v -1.5 11 1
v -0.5 10 1
v -0.5 10 -2
v -0.5 14 1
v -0.5 14 -2
v 2.5 2 -0
v 2.5 2 -1
v 2.5 3 -0
v 2.5 3 -1
v 2.5 11 1
v 2.5 11 -2
v 2.5 14 1
v 2.5 14 -2
v 3.5 7 1
v 3.5 7 -0
v 3.5 7 -1
v 3.5 7 -2
v 3.5 8 1
v 3.5 9 -0
v 3.5 9 -1
v 3.5 11 1
v 3.5 11 -2
v 4.5 5 1
v 4.5 5 -0
v 4.5 5 -1
v 4.5 5 -2
v 4.5 7 1
v 4.5 7 -0
v 4.5 7 -1
v 4.5 7 -2
v 4.5 8 2
v 4.5 8 1
v 4.5 9 -0
v 4.5 9 -1
v 4.5 11 2
v 4.5 11 1
v 5.5 1 -0
v 5.5 1 -1
v 5.5 2 -0
v 5.5 2 -1
v 5.5 3 1
v 5.5 3 -2
v 5.5 5 1
v 5.5 5 -2
v 6.5 0 1
v 6.5 0 -2
v 6.5 1 -0
v 6.5 1 -1
v 6.5 2 -0
v 6.5 2 -1
v 6.5 3 1
v 6.5 3 -2
v -4.5 8 2
v -4.5 11 2
v -3.5 9 2
v -3.5 10 2
v -2.5 9 2
v -2.5 10 2
v -1.5 8 2
v -1.5 11 2
v 1.5 8 2
v 1.5 11 2
v 2.5 9 2
v 2.5 10 2
v 3.5 9 2
v 3.5 10 2
v 4.5 8 2
v 4.5 11 2
v -6.5 0 1
v -6.5 3 1
v -5.5 0 1
v -5.5 1 1
v -5.5 3 1
v -5.5 5 1
v -4.5 1 1
v -4.5 2 1
v -4.5 5 1
v -4.5 7 1
v -3.5 2 1
v -3.5 3 1
v -3.5 7 1
v -3.5 8 1
v -2.5 3 1
v -2.5 4 1
v -2.5 11 1
v -2.5 14 1
v -1.5 4 1
v -1.5 5 1
v -1.5 7 1
v -1.5 8 1
v -1.5 10 1
v -1.5 11 1
v -0.5 10 1
v -0.5 14 1
v 0.5 10 1
v 0.5 14 1
v 1.5 4 1
v 1.5 5 1
v 1.5 7 1
v 1.5 8 1
v 1.5 10 1
v 1.5 11 1
v 2.5 3 1
v 2.5 4 1
v 2.5 11 1
v 2.5 14 1
v 3.5 2 1
v 3.5 3 1
v 3.5 7 1
v 3.5 8 1
v 4.5 1 1
v 4.5 2 1
v 4.5 5 1
v 4.5 7 1
v 5.5 0 1
v 5.5 1 1
v 5.5 3 1
v 5.5 5 1
v 6.5 0 1
v 6.5 3 1
v -4.5 7 -0
v -4.5 9 -0
v -3.5 7 -0
v -3.5 9 -0
v -2.5 2 -0
v -2.5 3 -0
v -2.5 4 -0
v -1.5 3 -0
v -1.5 4 -0
v 1.5 3 -0
v 1.5 4 -0
v 2.5 2 -0
v 2.5 3 -0
v 2.5 4 -0
v 3.5 7 -0
v 3.5 9 -0
v 4.5 7 -0
v 4.5 9 -0
v -6.5 1 -1
v -6.5 2 -1
v -5.5 1 -1
v -5.5 2 -1
v 5.5 1 -1
v 5.5 2 -1
v 6.5 1 -1
v 6.5 2 -1
v -4.5 8 1
v -4.5 11 1
v -3.5 8 1
v -3.5 11 1
v -2.5 8 1
v -2.5 9 1
v -1.5 8 1
v -1.5 9 1
v 1.5 8 1
v 1.5 9 1
v 2.5 8 1
v 2.5 9 1
v 3.5 8 1
v 3.5 11 1
v 4.5 8 1
v 4.5 11 1
v -6.5 1 -0
v -6.5 2 -0
v -5.5 1 -0
v -5.5 2 -0
v 5.5 1 -0
v 5.5 2 -0
v 6.5 1 -0
v 6.5 2 -0
v -4.5 7 -1
v -4.5 9 -1
v -3.5 7 -1
v -3.5 9 -1
v -2.5 2 -1
v -2.5 3 -1
v -2.5 4 -1
v -1.5 3 -1
v -1.5 4 -1
v 1.5 3 -1
v 1.5 4 -1
v 2.5 2 -1
v 2.5 3 -1
v 2.5 4 -1
v 3.5 7 -1
v 3.5 9 -1
v 4.5 7 -1
v 4.5 9 -1
v -6.5 0 -2
v -6.5 3 -2
v -5.5 0 -2
v -5.5 1 -2
v -5.5 3 -2
v -5.5 5 -2
v -4.5 1 -2
v -4.5 2 -2
v -4.5 5 -2
v -4.5 7 -2
v -3.5 2 -2
v -3.5 3 -2
v -3.5 7 -2
v -3.5 11 -2
v -2.5 3 -2
v -2.5 4 -2
v -2.5 8 -2
v -2.5 9 -2
v -2.5 11 -2
v -2.5 14 -2
v -1.5 4 -2
v -1.5 5 -2
v -1.5 7 -2
v -1.5 8 -2
v -1.5 9 -2
v -1.5 10 -2
v -0.5 10 -2
v -0.5 14 -2
v 0.5 10 -2
v 0.5 14 -2
v 1.5 4 -2
v 1.5 5 -2
v 1.5 7 -2
v 1.5 8 -2
v 1.5 9 -2
v 1.5 10 -2
v 2.5 3 -2
v 2.5 4 -2
v 2.5 8 -2
v 2.5 9 -2
v 2.5 11 -2
v 2.5 14 -2
v 3.5 2 -2
v 3.5 3 -2
v 3.5 7 -2
v 3.5 11 -2
v 4.5 1 -2
v 4.5 2 -2
v 4.5 5 -2
v 4.5 7 -2
v 5.5 0 -2
v 5.5 1 -2
v 5.5 3 -2
v 5.5 5 -2
v 6.5 0 -2
v 6.5 3 -2
v -6.5 0 1
v -5.5 0 1
v 5.5 0 1
v 6.5 0 1
v -6.5 0 -2
v -5.5 0 -2
v 5.5 0 -2
v 6.5 0 -2
v -5.5 1 1
v -4.5 1 1
v 4.5 1 1
v 5.5 1 1
v -5.5 1 -2
v -4.5 1 -2
v 4.5 1 -2
v 5.5 1 -2
v -4.5 2 1
v -3.5 2 1
v 3.5 2 1
v 4.5 2 1
v -6.5 2 -0
v -5.5 2 -0
v -2.5 2 -0
v 2.5 2 -0
v 5.5 2 -0
v 6.5 2 -0
v -6.5 2 -1
v -5.5 2 -1
v -2.5 2 -1
v 2.5 2 -1
v 5.5 2 -1
v 6.5 2 -1
v -4.5 2 -2
v -3.5 2 -2
v 3.5 2 -2
v 4.5 2 -2
v -3.5 3 1
v -2.5 3 1
v 2.5 3 1
v 3.5 3 1
v -3.5 3 -0
v -2.5 3 -0
v 2.5 3 -0
v 3.5 3 -0
v -3.5 3 -1
v -2.5 3 -1
v 2.5 3 -1
v 3.5 3 -1
v -3.5 3 -2
v -2.5 3 -2
v 2.5 3 -2
v 3.5 3 -2
v -2.5 4 1
v -1.5 4 1
v 1.5 4 1
v 2.5 4 1
v -2.5 4 -0
v -1.5 4 -0
v 1.5 4 -0
v 2.5 4 -0
v -2.5 4 -1
v -1.5 4 -1
v 1.5 4 -1
v 2.5 4 -1
v -2.5 4 -2
v -1.5 4 -2
v 1.5 4 -2
v 2.5 4 -2
v -1.5 5 1
v 1.5 5 1
v -1.5 5 -0
v 1.5 5 -0
v -1.5 5 -1
v 1.5 5 -1
v -1.5 5 -2
v 1.5 5 -2
v -4.5 8 2
v -1.5 8 2
v 1.5 8 2
v 4.5 8 2
v -4.5 8 1
v -3.5 8 1
v -1.5 8 1
v 1.5 8 1
v 3.5 8 1
v 4.5 8 1
v -2.5 9 1
v -1.5 9 1
v 1.5 9 1
v 2.5 9 1
v -2.5 9 -2
v -1.5 9 -2
v 1.5 9 -2
v 2.5 9 -2
v -1.5 10 1
v -0.5 10 1
v 0.5 10 1
v 1.5 10 1
v -1.5 10 -2
v -0.5 10 -2
v 0.5 10 -2
v 1.5 10 -2
v -6.5 1 -0
v -5.5 1 -0
v 5.5 1 -0
v 6.5 1 -0
v -6.5 1 -1
v -5.5 1 -1
v 5.5 1 -1
v 6.5 1 -1
v -6.5 3 1
v -5.5 3 1
v 5.5 3 1
v 6.5 3 1
v -1.5 3 -0
v 1.5 3 -0
v -1.5 3 -1
v 1.5 3 -1
v -6.5 3 -2
v -5.5 3 -2
v 5.5 3 -2
v 6.5 3 -2
v -5.5 5 1
v -4.5 5 1
v 4.5 5 1
v 5.5 5 1
v -4.5 5 -0
v 4.5 5 -0
v -4.5 5 -1
v 4.5 5 -1
v -5.5 5 -2
v -4.5 5 -2
v 4.5 5 -2
v 5.5 5 -2
v -4.5 7 1
v -3.5 7 1
v -1.5 7 1
v 1.5 7 1
v 3.5 7 1
v 4.5 7 1
v -4.5 7 -0
v -3.5 7 -0
v 3.5 7 -0
v 4.5 7 -0
v -4.5 7 -1
v -3.5 7 -1
v 3.5 7 -1
v 4.5 7 -1
v -4.5 7 -2
v -3.5 7 -2
v -1.5 7 -2
v 1.5 7 -2
v 3.5 7 -2
v 4.5 7 -2
v -2.5 8 1
v -1.5 8 1
v 1.5 8 1
v 2.5 8 1
v -2.5 8 -2
v -1.5 8 -2
v 1.5 8 -2
v 2.5 8 -2
v -4.5 9 -0
v -3.5 9 -0
v 3.5 9 -0
v 4.5 9 -0
v -4.5 9 -1
v -3.5 9 -1
v 3.5 9 -1
v 4.5 9 -1
v -4.5 11 2
v -1.5 11 2
v 1.5 11 2
v 4.5 11 2
v -4.5 11 1
v -3.5 11 1
v -2.5 11 1
v -1.5 11 1
v 1.5 11 1
v 2.5 11 1
v 3.5 11 1
v 4.5 11 1
v -3.5 11 -2
v -2.5 11 -2
v 2.5 11 -2
v 3.5 11 -2
v -2.5 14 1
v -0.5 14 1
v 0.5 14 1
v 2.5 14 1
v -2.5 14 -2
v -0.5 14 -2
v 0.5 14 -2
v 2.5 14 -2

# faces
f 3/1/1 2/1/1 1/1/1
f 4/1/1 2/1/1 3/1/1
f 5/1/1 3/1/1 1/1/1
f 6/1/1 2/1/1 4/1/1
f 7/1/1 5/1/1 1/1/1
f 7/1/1 6/1/1 5/1/1
f 8/1/1 2/1/1 6/1/1
f 8/1/1 6/1/1 7/1/1
f 11/1/1 10/1/1 9/1/1
f 12/1/1 10/1/1 11/1/1
f 15/1/1 14/1/1 13/1/1
f 16/1/1 14/1/1 15/1/1
f 21/1/1 18/1/1 17/1/1
f 22/3/1 19/3/1 18/3/1
f 22/1/1 18/1/1 21/1/1
f 23/1/1 20/1/1 19/1/1
f 23/3/1 19/3/1 22/3/1
f 24/1/1 20/1/1 23/1/1
f 27/3/1 23/3/1 22/3/1
f 28/3/1 23/3/1 27/3/1
f 29/2/1 26/2/1 25/2/1
f 30/2/1 26/2/1 29/2/1
f 35/1/1 32/1/1 31/1/1
f 36/1/1 32/1/1 35/1/1
f 37/1/1 34/1/1 33/1/1
f 38/1/1 36/1/1 35/1/1
f 38/1/1 37/1/1 36/1/1
f 39/1/1 34/1/1 37/1/1
f 39/1/1 37/1/1 38/1/1
f 42/3/1 41/3/1 40/3/1
f 43/3/1 41/3/1 42/3/1
f 46/1/1 45/1/1 44/1/1
f 47/1/1 45/1/1 46/1/1
f 50/1/1 49/1/1 48/1/1
f 51/1/1 49/1/1 50/1/1
f 55/3/1 53/3/1 52/3/1
f 56/3/1 53/3/1 55/3/1
f 58/1/1 55/1/1 54/1/1
f 59/3/1 56/3/1 55/3/1
f 59/1/1 55/1/1 58/1/1
f 60/1/1 57/1/1 56/1/1
f 60/3/1 56/3/1 59/3/1
f 61/1/1 57/1/1 60/1/1
f 65/1/1 63/1/1 62/1/1
f 66/1/1 63/1/1 65/1/1
f 67/2/1 65/2/1 64/2/1
f 69/2/1 67/2/1 64/2/1
f 69/1/1 68/1/1 67/1/1
f 70/1/1 68/1/1 69/1/1
f 71/2/1 69/2/1 64/2/1
f 72/2/1 69/2/1 71/2/1
f 77/1/1 74/1/1 73/1/1
f 78/1/1 74/1/1 77/1/1
f 79/1/1 76/1/1 75/1/1
f 80/1/1 76/1/1 79/1/1
f 83/1/1 82/1/1 81/1/1
f 84/1/1 82/1/1 83/1/1
f 87/1/1 86/1/1 85/1/1
f 88/1/1 86/1/1 87/1/1
f 89/1/1 86/1/1 88/1/1
f 90/1/1 86/1/1 89/1/1
f 93/1/1 92/1/1 91/1/1
f 94/1/1 92/1/1 93/1/1
f 97/1/1 96/1/1 95/1/1
f 98/1/1 96/1/1 97/1/1
f 99/1/2 100/1/2 101/1/2
f 101/1/2 100/1/2 102/1/2
f 103/1/2 104/1/2 105/1/2
f 105/1/2 104/1/2 106/1/2
f 107/1/2 108/1/2 109/1/2
f 109/1/2 108/1/2 110/1/2
f 110/1/2 108/1/2 111/1/2
f 111/1/2 108/1/2 112/1/2
f 113/1/2 114/1/2 117/1/2
f 117/1/2 114/1/2 118/1/2
f 115/1/2 116/1/2 119/1/2
f 119/1/2 116/1/2 120/1/2
f 121/1/2 122/1/2 123/1/2
f 123/1/2 122/1/2 124/1/2
f 125/3/2 126/3/2 128/3/2
f 128/3/2 126/3/2 129/3/2
f 127/1/2 128/1/2 131/1/2
f 128/3/2 129/3/2 132/3/2
f 131/1/2 128/1/2 132/1/2
f 129/1/2 130/1/2 133/1/2
f 132/3/2 129/3/2 133/3/2
f 133/1/2 130/1/2 134/1/2
f 135/1/2 136/1/2 138/1/2
f 138/1/2 136/1/2 139/1/2
f 137/2/2 138/2/2 140/2/2
f 137/2/2 140/2/2 142/2/2
f 140/1/2 141/1/2 142/1/2
f 142/1/2 141/1/2 143/1/2
f 137/2/2 142/2/2 144/2/2
f 144/2/2 142/2/2 145/2/2
f 146/1/2 147/1/2 148/1/2
f 148/1/2 147/1/2 149/1/2
f 150/3/2 151/3/2 152/3/2
f 152/3/2 151/3/2 153/3/2
f 154/1/2 155/1/2 156/1/2
f 156/1/2 155/1/2 157/1/2
f 158/1/2 159/1/2 162/1/2
f 162/1/2 159/1/2 163/1/2
f 160/1/2 161/1/2 164/1/2
f 162/1/2 163/1/2 165/1/2
f 163/1/2 164/1/2 165/1/2
f 164/1/2 161/1/2 166/1/2
f 165/1/2 164/1/2 166/1/2
f 167/1/2 168/1/2 171/1/2
f 168/3/2 169/3/2 172/3/2
f 171/1/2 168/1/2 172/1/2
f 169/1/2 170/1/2 173/1/2
f 172/3/2 169/3/2 173/3/2
f 173/1/2 170/1/2 174/1/2
f 172/3/2 173/3/2 177/3/2
f 177/3/2 173/3/2 178/3/2
f 175/2/2 176/2/2 179/2/2
f 179/2/2 176/2/2 180/2/2
f 181/1/2 182/1/2 183/1/2
f 183/1/2 182/1/2 184/1/2
f 185/1/2 186/1/2 187/1/2
f 187/1/2 186/1/2 188/1/2
f 189/1/2 190/1/2 191/1/2
f 191/1/2 190/1/2 192/1/2
f 189/1/2 191/1/2 193/1/2
f 192/1/2 190/1/2 194/1/2
f 189/1/2 193/1/2 195/1/2
f 193/1/2 194/1/2 195/1/2
f 194/1/2 190/1/2 196/1/2
f 195/1/2 194/1/2 196/1/2
f 199/2/3 198/2/3 197/2/3
f 200/2/3 198/2/3 199/2/3
f 201/2/3 199/2/3 197/2/3
f 201/4/3 200/4/3 199/4/3
f 202/2/3 198/2/3 200/2/3
f 202/4/3 200/4/3 201/4/3
f 203/2/3 201/2/3 197/2/3
f 203/2/3 202/2/3 201/2/3
f 204/2/3 198/2/3 202/2/3
f 204/2/3 202/2/3 203/2/3
f 207/2/3 206/2/3 205/2/3
f 208/2/3 206/2/3 207/2/3
f 209/2/3 207/2/3 205/2/3
f 209/4/3 208/4/3 207/4/3
f 210/2/3 206/2/3 208/2/3
f 210/4/3 208/4/3 209/4/3
f 211/2/3 209/2/3 205/2/3
f 211/2/3 210/2/3 209/2/3
f 212/2/3 206/2/3 210/2/3
f 212/2/3 210/2/3 211/2/3
f 215/1/3 214/1/3 213/1/3
f 216/1/3 214/1/3 215/1/3
f 217/1/3 214/1/3 216/1/3
f 219/1/3 218/1/3 217/1/3
f 219/1/3 217/1/3 216/1/3
f 220/1/3 218/1/3 219/1/3
f 221/1/3 218/1/3 220/1/3
f 223/1/3 222/1/3 221/1/3
f 223/1/3 221/1/3 220/1/3
f 224/1/3 222/1/3 223/1/3
f 225/1/3 222/1/3 224/1/3
f 227/1/3 226/1/3 225/1/3
f 227/1/3 225/1/3 224/1/3
f 228/1/3 226/1/3 227/1/3
f 231/1/3 226/1/3 228/1/3
f 232/1/3 226/1/3 231/1/3
f 233/1/3 226/1/3 232/1/3
f 234/1/3 226/1/3 233/1/3
f 236/1/3 230/1/3 229/1/3
f 237/1/3 236/1/3 235/1/3
f 238/1/3 230/1/3 236/1/3
f 238/1/3 236/1/3 237/1/3
f 242/1/3 233/1/3 232/1/3
f 243/1/3 233/1/3 242/1/3
f 245/1/3 240/1/3 239/1/3
f 246/1/3 240/1/3 245/1/3
f 248/1/3 244/1/3 243/1/3
f 248/1/3 242/1/3 241/1/3
f 248/1/3 243/1/3 242/1/3
f 249/1/3 240/1/3 246/1/3
f 250/1/3 240/1/3 249/1/3
f 252/1/3 248/1/3 247/1/3
f 253/1/3 244/1/3 248/1/3
f 253/1/3 248/1/3 252/1/3
f 254/1/3 244/1/3 253/1/3
f 256/1/3 252/1/3 251/1/3
f 256/1/3 253/1/3 252/1/3
f 257/1/3 253/1/3 256/1/3
f 258/1/3 253/1/3 257/1/3
f 260/1/3 256/1/3 255/1/3
f 260/1/3 257/1/3 256/1/3
f 261/1/3 257/1/3 260/1/3
f 262/1/3 257/1/3 261/1/3
f 263/1/3 260/1/3 259/1/3
f 263/1/3 261/1/3 260/1/3
f 264/1/3 261/1/3 263/1/3
f 267/3/3 266/3/3 265/3/3
f 268/3/3 266/3/3 267/3/3
f 272/3/3 270/3/3 269/3/3
f 272/3/3 271/3/3 270/3/3
f 273/3/3 271/3/3 272/3/3
f 274/3/3 272/3/3 269/3/3
f 276/3/3 274/3/3 269/3/3
f 276/3/3 275/3/3 274/3/3
f 277/3/3 275/3/3 276/3/3
f 278/3/3 275/3/3 277/3/3
f 281/3/3 280/3/3 279/3/3
f 282/3/3 280/3/3 281/3/3
f 285/1/3 284/1/3 283/1/3
f 286/1/3 284/1/3 285/1/3
f 289/1/3 288/1/3 287/1/3
f 290/1/3 288/1/3 289/1/3
f 291/2/4 292/2/4 293/2/4
f 293/2/4 292/2/4 294/2/4
f 295/2/4 296/2/4 297/2/4
f 297/2/4 296/2/4 298/2/4
f 299/2/4 300/2/4 301/2/4
f 301/2/4 300/2/4 302/2/4
f 303/2/4 304/2/4 305/2/4
f 305/2/4 304/2/4 306/2/4
f 307/1/4 308/1/4 309/1/4
f 309/1/4 308/1/4 310/1/4
f 311/1/4 312/1/4 313/1/4
f 313/1/4 312/1/4 314/1/4
f 315/3/4 316/3/4 317/3/4
f 317/3/4 316/3/4 318/3/4
f 319/3/4 320/3/4 322/3/4
f 320/3/4 321/3/4 322/3/4
f 322/3/4 321/3/4 323/3/4
f 319/3/4 322/3/4 324/3/4
f 319/3/4 324/3/4 326/3/4
f 324/3/4 325/3/4 326/3/4
f 326/3/4 325/3/4 327/3/4
f 327/3/4 325/3/4 328/3/4
f 329/3/4 330/3/4 331/3/4
f 331/3/4 330/3/4 332/3/4
f 333/1/4 334/1/4 335/1/4
f 335/1/4 334/1/4 336/1/4
f 336/1/4 334/1/4 337/1/4
f 337/1/4 338/1/4 339/1/4
f 336/1/4 337/1/4 339/1/4
f 339/1/4 338/1/4 340/1/4
f 340/1/4 338/1/4 341/1/4
f 341/1/4 342/1/4 343/1/4
f 340/1/4 341/1/4 343/1/4
f 343/1/4 342/1/4 344/1/4
f 344/1/4 342/1/4 345/1/4
f 345/1/4 346/1/4 347/1/4
f 344/1/4 345/1/4 347/1/4
f 347/1/4 346/1/4 348/1/4
f 348/1/4 346/1/4 349/1/4
f 349/1/4 346/1/4 350/1/4
f 350/1/4 346/1/4 351/1/4
f 348/1/4 349/1/4 353/1/4
f 353/1/4 349/1/4 354/1/4
f 354/1/4 349/1/4 355/1/4
f 355/1/4 349/1/4 356/1/4
f 351/1/4 352/1/4 357/1/4
f 350/1/4 351/1/4 357/1/4
f 357/1/4 352/1/4 358/1/4
f 358/1/4 352/1/4 359/1/4
f 359/1/4 352/1/4 360/1/4
f 354/1/4 355/1/4 364/1/4
f 364/1/4 355/1/4 365/1/4
f 361/1/4 362/1/4 368/1/4
f 365/1/4 366/1/4 370/1/4
f 363/1/4 364/1/4 370/1/4
f 364/1/4 365/1/4 370/1/4
f 370/1/4 366/1/4 371/1/4
f 367/1/4 368/1/4 372/1/4
f 368/1/4 362/1/4 373/1/4
f 372/1/4 368/1/4 373/1/4
f 373/1/4 362/1/4 374/1/4
f 370/1/4 371/1/4 376/1/4
f 371/1/4 372/1/4 376/1/4
f 372/1/4 373/1/4 376/1/4
f 369/1/4 370/1/4 376/1/4
f 376/1/4 373/1/4 377/1/4
f 377/1/4 373/1/4 378/1/4
f 375/1/4 376/1/4 380/1/4
f 376/1/4 377/1/4 380/1/4
f 380/1/4 377/1/4 381/1/4
f 381/1/4 377/1/4 382/1/4
f 379/1/4 380/1/4 384/1/4
f 380/1/4 381/1/4 384/1/4
f 384/1/4 381/1/4 385/1/4
f 385/1/4 381/1/4 386/1/4
f 383/1/4 384/1/4 387/1/4
f 384/1/4 385/1/4 387/1/4
f 387/1/4 385/1/4 388/1/4
f 393/1/5 390/1/5 389/1/5
f 394/1/5 390/1/5 393/1/5
f 395/1/5 392/1/5 391/1/5
f 396/1/5 392/1/5 395/1/5
f 401/1/5 398/1/5 397/1/5
f 402/1/5 398/1/5 401/1/5
f 403/1/5 400/1/5 399/1/5
f 404/1/5 400/1/5 403/1/5
f 415/1/5 410/1/5 409/1/5
f 416/1/5 410/1/5 415/1/5
f 417/3/5 412/3/5 411/3/5
f 418/3/5 412/3/5 417/3/5
f 419/1/5 414/1/5 413/1/5
f 420/1/5 414/1/5 419/1/5
f 421/1/5 406/1/5 405/1/5
f 422/1/5 406/1/5 421/1/5
f 423/1/5 408/1/5 407/1/5
f 424/1/5 408/1/5 423/1/5
f 429/1/5 426/1/5 425/1/5
f 430/1/5 426/1/5 429/1/5
f 431/1/5 428/1/5 427/1/5
f 432/1/5 428/1/5 431/1/5
f 433/3/5 430/3/5 429/3/5
f 434/3/5 430/3/5 433/3/5
f 435/3/5 432/3/5 431/3/5
f 436/3/5 432/3/5 435/3/5
f 437/1/5 434/1/5 433/1/5
f 438/1/5 434/1/5 437/1/5
f 439/1/5 436/1/5 435/1/5
f 440/1/5 436/1/5 439/1/5
f 445/1/5 442/1/5 441/1/5
f 446/1/5 442/1/5 445/1/5
f 447/1/5 444/1/5 443/1/5
f 448/1/5 444/1/5 447/1/5
f 453/1/5 450/1/5 449/1/5
f 454/1/5 450/1/5 453/1/5
f 455/1/5 452/1/5 451/1/5
f 456/1/5 452/1/5 455/1/5
f 459/1/5 458/1/5 457/1/5
f 460/1/5 458/1/5 459/1/5
f 461/1/5 460/1/5 459/1/5
f 462/1/5 460/1/5 461/1/5
f 463/1/5 462/1/5 461/1/5
f 464/1/5 462/1/5 463/1/5
f 469/2/5 466/2/5 465/2/5
f 470/2/5 466/2/5 469/2/5
f 471/2/5 466/2/5 470/2/5
f 472/2/5 468/2/5 467/2/5
f 473/2/5 468/2/5 472/2/5
f 474/2/5 468/2/5 473/2/5
f 479/1/5 476/1/5 475/1/5
f 480/1/5 476/1/5 479/1/5
f 481/1/5 478/1/5 477/1/5
f 482/1/5 478/1/5 481/1/5
f 487/1/5 484/1/5 483/1/5
f 488/1/5 484/1/5 487/1/5
f 489/1/5 486/1/5 485/1/5
f 490/1/5 486/1/5 489/1/5
f 491/1/6 492/1/6 495/1/6
f 495/1/6 492/1/6 496/1/6
f 493/1/6 494/1/6 497/1/6
f 497/1/6 494/1/6 498/1/6
f 503/3/6 504/3/6 505/3/6
f 505/3/6 504/3/6 506/3/6
f 499/1/6 500/1/6 507/1/6
f 507/1/6 500/1/6 508/1/6
f 501/1/6 502/1/6 509/1/6
f 509/1/6 502/1/6 510/1/6
f 511/1/6 512/1/6 515/1/6
f 513/1/6 514/1/6 516/1/6
f 511/1/6 515/1/6 517/1/6
f 516/1/6 514/1/6 518/1/6
f 511/1/6 517/1/6 519/1/6
f 519/1/6 517/1/6 520/1/6
f 518/1/6 514/1/6 521/1/6
f 521/1/6 514/1/6 522/1/6
f 523/1/6 524/1/6 529/1/6
f 529/1/6 524/1/6 530/1/6
f 527/1/6 528/1/6 531/1/6
f 531/1/6 528/1/6 532/1/6
f 533/1/6 534/1/6 537/1/6
f 537/1/6 534/1/6 538/1/6
f 525/1/6 526/1/6 539/1/6
f 539/1/6 526/1/6 540/1/6
f 535/1/6 536/1/6 541/1/6
f 541/1/6 536/1/6 542/1/6
f 543/1/6 544/1/6 547/1/6
f 547/1/6 544/1/6 548/1/6
f 545/1/6 546/1/6 549/1/6
f 549/1/6 546/1/6 550/1/6
f 551/3/6 552/3/6 555/3/6
f 555/3/6 552/3/6 556/3/6
f 553/3/6 554/3/6 557/3/6
f 557/3/6 554/3/6 558/3/6
f 559/2/6 560/2/6 563/2/6
f 563/2/6 560/2/6 564/2/6
f 564/2/6 560/2/6 565/2/6
f 565/2/6 560/2/6 566/2/6
f 561/2/6 562/2/6 567/2/6
f 567/2/6 562/2/6 568/2/6
f 568/2/6 562/2/6 569/2/6
f 569/2/6 562/2/6 570/2/6
f 564/1/6 565/1/6 571/1/6
f 571/1/6 565/1/6 572/1/6
f 568/1/6 569/1/6 573/1/6
f 573/1/6 569/1/6 574/1/6
f 575/1/6 576/1/6 579/1/6
f 579/1/6 576/1/6 580/1/6
f 577/1/6 578/1/6 581/1/6
f 581/1/6 578/1/6 582/1/6
